PathFileType	4	(X/Y/Z)	/Users/niels/Desktop/University/Third Semester/Perception and Action/Exam/Gymnastics Motion Tracking/Code for Gym Tracking/Analyzed Data/Webcam_Backflip/id2_1_baseline_Sports2D/id2_1_baseline_Sports2D_px_person00.trc
DataRate	CameraRate	NumFrames	NumMarkers	Units	OrigDataRate	OrigDataStartFrame	OrigNumFrames
29.872881355932204	29.872881355932204	8	22	m	29.872881355932204	0	236
Frame#	Time	Hip			RHip			RKnee			RAnkle			RBigToe			RSmallToe			RHeel			LHip			LKnee			LAnkle			LBigToe			LSmallToe			LHeel			Neck			Head			Nose			RShoulder			RElbow			RWrist			LShoulder			LElbow			LWrist		
		X1	Y1	Z1	X2	Y2	Z2	X3	Y3	Z3	X4	Y4	Z4	X5	Y5	Z5	X6	Y6	Z6	X7	Y7	Z7	X8	Y8	Z8	X9	Y9	Z9	X10	Y10	Z10	X11	Y11	Z11	X12	Y12	Z12	X13	Y13	Z13	X14	Y14	Z14	X15	Y15	Z15	X16	Y16	Z16	X17	Y17	Z17	X18	Y18	Z18	X19	Y19	Z19	X20	Y20	Z20	X21	Y21	Z21	X22	Y22	Z22
0	0.0	0.9266088414458624	-0.5449122617639953	0.0	0.9281596911898672	-0.5433468120871016	0.0	0.9531750155936656	-0.6620033479674641	0.0	0.9297456314404702	-0.779130150459627	0.0	0.9687855536977381	-0.8103487561050776	0.0	0.9578538220639669	-0.810354685799207	0.0	0.9156936624969785	-0.7963020483829599	0.0	0.9203844261067926	-0.540218976673208	0.0	0.950085261378262	-0.6604318325788725	0.0	0.9344482642101847	-0.7713098062796037	0.0	0.9688196771482703	-0.7978973659670622	0.0	0.9656887239993184	-0.7931741225843654	0.0	0.9188423743011821	-0.7853727242440444	0.0	0.9672434468959684	-0.3949699449084828	0.0	1.0203235631152527	-0.3309356008800538	0.0	1.015648086955021	-0.3668500434967787	0.0	0.9656790945444244	-0.39811629127566667	0.0	0.9110215730750421	-0.3872612245832137	0.0	0.8641697762004329	-0.3842301751744834	0.0	0.9500358670537185	-0.39498077068513454	0.0	0.9094134479076106	-0.4090957626010163	0.0	0.8625726708750634	-0.4325987446599422	0.0
1	0.033475177304964535	0.9248445216622465	-0.5304444419247235	0.0	0.9261517101284876	-0.5280220551005761	0.0	0.9488643927432664	-0.6489562751695475	0.0	0.9339195070328903	-0.768479424634036	0.0	0.9696844436258115	-0.8035050595225437	0.0	0.9586021715785928	-0.8036072173660829	0.0	0.9215314590644373	-0.7850940918280931	0.0	0.9207708115901024	-0.5256426548959566	0.0	0.9474862639510238	-0.6480987225941646	0.0	0.9380279781506939	-0.7612694236783055	0.0	0.9694651407851828	-0.791460307401055	0.0	0.9679315216369531	-0.7870414576196518	0.0	0.923547607715155	-0.7759071488784681	0.0	0.9667430952003542	-0.381961515041712	0.0	1.021143905611017	-0.3205582334120272	0.0	1.0160610795281209	-0.35574965981072093	0.0	0.9675260143273137	-0.3826150955887483	0.0	0.9148293763621013	-0.3678725858709163	0.0	0.8658745592138236	-0.3591409407922112	0.0	0.9508104587890704	-0.3812572491729324	0.0	0.9092483896895577	-0.39268131072059537	0.0	0.8632326320808149	-0.41156681109965554	0.0
2	0.06695035460992907	0.9230406181627349	-0.5174277028834575	0.0	0.9242005621210537	-0.5142537276434	0.0	0.9449800731678463	-0.637173304917786	0.0	0.9379982999153669	-0.7587350231831342	0.0	0.9709554156172937	-0.7972395152453103	0.0	0.959543113139357	-0.7973404328901289	0.0	0.9272002900185825	-0.7748802597822076	0.0	0.9204820430786493	-0.5124538020386094	0.0	0.9449381671324771	-0.6369494660615721	0.0	0.9412162833119904	-0.752243193598698	0.0	0.9698875288727682	-0.7854019172339173	0.0	0.9697617224384276	-0.7812418234569755	0.0	0.9278416227169162	-0.7673970549369903	0.0	0.966121153411066	-0.3702779047528058	0.0	1.0220688942838363	-0.31119782013531694	0.0	1.0165462383378046	-0.3456097380988991	0.0	0.969165705752311	-0.36873508674309485	0.0	0.9177763012719838	-0.35049642569362693	0.0	0.8670836587530311	-0.3366241650078742	0.0	0.9514176092993148	-0.36875765999948024	0.0	0.9089536712431507	-0.3774790904406772	0.0	0.8631469290662402	-0.3921148605614693	0.0
3	0.1004255319148936	0.9211827661080919	-0.507060601923234	0.0	0.9222846170573796	-0.503294447926543	0.0	0.9419704548074844	-0.6277331913597022	0.0	0.9416960511897849	-0.7507346529715413	0.0	0.9726057867942797	-0.7921325574980008	0.0	0.960659134299196	-0.7921237696064083	0.0	0.9322725828353249	-0.7665935865391986	0.0	0.9191841825789462	-0.5018644681990773	0.0	0.9426519680557086	-0.6280272103857655	0.0	0.9436521598948476	-0.7451049048526094	0.0	0.9699749508326786	-0.7802266972288594	0.0	0.9709584436059919	-0.7762962157057616	0.0	0.9313122934702678	-0.7606511786469583	0.0	0.9653790303540929	-0.36101310537813125	0.0	1.0231024368489208	-0.3037623272286434	0.0	1.0171186523736142	-0.3373650239852158	0.0	0.9704101643230651	-0.35783224340105485	0.0	0.9191232497589902	-0.3368132605896434	0.0	0.8672270804921919	-0.3188364543297725	0.0	0.9518531007565603	-0.35866420288539574	0.0	0.9082913525060675	-0.3647660936878463	0.0	0.8617597437954346	-0.37567296754487073	0.0
4	0.13390070921985814	0.9193014784112347	-0.5000820684529674	0.0	0.9203282597466648	-0.49590594536000016	0.0	0.9402224027406844	-0.6212855841801547	0.0	0.9445961835360918	-0.7451191009476305	0.0	0.9742748785174672	-0.7887478255005771	0.0	0.9617562643004346	-0.7885727217023712	0.0	0.9361210383873032	-0.7608804248337944	0.0	0.9169997726560797	-0.49468850507774037	0.0	0.940936267276848	-0.6219784757419051	0.0	0.9450591526470522	-0.7403850111580821	0.0	0.9697442802463316	-0.7765085533496093	0.0	0.9714633440055772	-0.7728074425561747	0.0	0.9335542199024097	-0.7561471137837696	0.0	0.9646758354136166	-0.3548407177946092	0.0	1.024135056328409	-0.2988461907406924	0.0	1.0177449103221996	-0.33175944508465605	0.0	0.9711203792412975	-0.3507745975198072	0.0	0.9183597703373527	-0.3278266912950268	0.0	0.8656836088946324	-0.30703853113904955	0.0	0.95231722977598	-0.35188629743864924	0.0	0.9070406996030708	-0.35551490398057334	0.0	0.8588390204684461	-0.36313140317563203	0.0
5	0.16737588652482266	0.9174205460899301	-0.49685484731436363	0.0	0.9182501027547839	-0.49248921649335275	0.0	0.9399679985349974	-0.6180613262761584	0.0	0.9462766216177143	-0.742267501532252	0.0	0.9754642322498255	-0.7874627409794193	0.0	0.962577244344257	-0.7871408791415544	0.0	0.9381169405753318	-0.7579900674642459	0.0	0.914296852150445	-0.4913763687891729	0.0	0.9400592739869689	-0.6190095040880939	0.0	0.9452416659610688	-0.7382390408973005	0.0	0.9692845200328322	-0.7746312777013656	0.0	0.9712682918396025	-0.7712135410092902	0.0	0.9341651781943627	-0.7540189156533063	0.0	0.9642315938611552	-0.35216790332380615	0.0	1.0250212975561928	-0.2968486773579734	0.0	1.0183882252587464	-0.3293672679635594	0.0	0.9712160355609355	-0.3480573619928215	0.0	0.9153409205278356	-0.3240808094283266	0.0	0.8619329183848646	-0.3018793094830766	0.0	0.9530894209691196	-0.3490519398494176	0.0	0.9051238950076319	-0.350329739213837	0.0	0.8544432514522519	-0.35491298014857436	0.0
6	0.2008510638297872	0.9155260306557643	-0.4974884936683435	0.0	0.9159751407388178	-0.4931845460881701	0.0	0.9411939462219253	-0.6180088701955705	0.0	0.9464117384826559	-0.7422619831552356	0.0	0.9757855158022111	-0.7882272707070794	0.0	0.9628537783228837	-0.7878835343211749	0.0	0.9378365361244854	-0.7578473685916396	0.0	0.9114634560278208	-0.492108868169682	0.0	0.9401725918911947	-0.619014170000973	0.0	0.9441130444687753	-0.7385422051672564	0.0	0.9687042345014225	-0.7745434876480731	0.0	0.9704199531413953	-0.7716007172623305	0.0	0.9328496164191231	-0.7541724853315718	0.0	0.9641757613629359	-0.35326889877398193	0.0	1.0256734792570865	-0.29816015254102374	0.0	1.0190266419659706	-0.3306436206647029	0.0	0.9706447175027028	-0.34988132115237225	0.0	0.9104093221882146	-0.32600407151519806	0.0	0.855830461516197	-0.30389506953718554	0.0	0.9543484494951974	-0.3505501258112853	0.0	0.9025948976177999	-0.3496450785741854	0.0	0.8488297404907595	-0.35130599541990215	0.0
7	0.23432624113475176	0.9135518902999712	-0.5019490193712255	0.0	0.913441663548275	-0.4979090322559106	0.0	0.9436576625869628	-0.6209489831817362	0.0	0.9448452352484542	-0.7449838442395552	0.0	0.9751648794107711	-0.7905051353981899	0.0	0.9624340804679822	-0.7903962109642265	0.0	0.9352124505037195	-0.7602860109045052	0.0	0.9087480509848772	-0.49685029166652034	0.0	0.94130693061682	-0.6217475314452438	0.0	0.9417418306470664	-0.7410462579059947	0.0	0.9681108255893641	-0.7757700027056611	0.0	0.9690760144199269	-0.773706815883939	0.0	0.9295665525999267	-0.7564367505828405	0.0	0.9645171577835046	-0.3583553662815141	0.0	1.026101779885978	-0.3031872148762243	0.0	1.0196645747494013	-0.3359205867959904	0.0	0.9693953353890108	-0.35625259927437064	0.0	0.9043540436168621	-0.3340664734646708	0.0	0.8477703313200057	-0.3137066426664725	0.0	0.9561023951825134	-0.3565970465644805	0.0	0.8996305952960401	-0.35399523432644314	0.0	0.8424368664156858	-0.35286444221602875	0.0
